<svg width="28" height="28" fill="none" xmlns="http://www.w3.org/2000/svg"><path d="M15.4 14l-3.223-3.508a.717.717 0 010-1.005.7.7 0 01.994 0l3.93 4.01a.715.715 0 010 1.003l-3.93 4.01a.697.697 0 01-.994 0 .715.715 0 010-1.004L15.4 14zM14 .56C21.423.56 27.44 6.577 27.44 14c0 7.424-6.017 13.44-13.44 13.44C6.577 27.44.56 21.424.56 14 .56 6.577 6.577.56 14 .56zm0 25.136c6.458 0 11.696-5.236 11.696-11.696S20.458 2.305 14 2.305C7.54 2.305 2.304 7.54 2.304 14S7.539 25.696 14 25.696z" fill="#fff" fill-opacity=".7"/></svg>