<svg width="42" height="33" fill="none" xmlns="http://www.w3.org/2000/svg"><path d="M41.572 20.8v-.498h-.13l-.15.341-.148-.341h-.13v.497h.092v-.375l.14.324h.095l.14-.325v.376h.09zm-.82 0v-.414h.165v-.084h-.422v.084h.166v.413h.09z" fill="#0099DF"/><path d="M26.878 22.941H15.694V2.753h11.184V22.94z" fill="#6C6BBD"/><path d="M16.41 12.845c0-4.095 1.91-7.743 4.883-10.094a12.692 12.692 0 00-7.9-2.745C6.334.006.612 5.754.612 12.846c0 7.09 5.722 12.84 12.781 12.84 2.982 0 5.726-1.027 7.9-2.746a12.838 12.838 0 01-4.882-10.095z" fill="#EB001B"/><path d="M41.962 12.845c0 7.092-5.723 12.84-12.782 12.84a12.695 12.695 0 01-7.9-2.745 12.836 12.836 0 004.883-10.095c0-4.095-1.91-7.743-4.883-10.094a12.695 12.695 0 017.9-2.745c7.06 0 12.782 5.748 12.782 12.84z" fill="#0099DF"/><path d="M30.65 28.642c.148 0 .362.029.525.093l-.228.7a1.191 1.191 0 00-.461-.086c-.483 0-.724.313-.724.876v1.912h-.74v-3.409h.732v.414c.192-.3.47-.5.895-.5zm-2.73.764h-1.207v1.54c0 .342.12.57.49.57.192 0 .433-.064.653-.192l.213.634c-.234.164-.603.265-.923.265-.873 0-1.178-.471-1.178-1.263v-1.554h-.69v-.678h.69v-1.034h.745v1.034h1.207v.678zm-9.45.727c.078-.492.376-.828.901-.828.476 0 .781.3.86.828h-1.762zm2.527.3c-.007-1.063-.66-1.79-1.612-1.79-.994 0-1.69.727-1.69 1.79 0 1.083.725 1.789 1.74 1.789.512 0 .98-.128 1.392-.478l-.363-.549a1.61 1.61 0 01-.986.357c-.476 0-.909-.221-1.015-.834h2.52c.007-.094.014-.186.014-.285zm3.245-.835a2.17 2.17 0 00-1.058-.293c-.404 0-.646.15-.646.4 0 .228.256.293.575.335l.348.05c.739.108 1.186.421 1.186 1.02 0 .65-.569 1.113-1.548 1.113-.554 0-1.065-.143-1.47-.443l.348-.578c.248.193.618.357 1.13.357.503 0 .773-.15.773-.414 0-.192-.192-.3-.596-.356l-.348-.05c-.76-.107-1.172-.45-1.172-1.005 0-.678.554-1.092 1.413-1.092.54 0 1.03.122 1.384.357l-.32.6zm9.106-.251c-.152 0-.292.027-.423.08a1.017 1.017 0 00-.563.572 1.179 1.179 0 00-.081.445c0 .163.027.31.081.445a1.014 1.014 0 00.562.572c.132.054.272.08.424.08a1.1 1.1 0 00.424-.08 1.013 1.013 0 00.566-.572c.054-.135.081-.282.081-.445 0-.162-.027-.31-.081-.445a1.016 1.016 0 00-.566-.572 1.113 1.113 0 00-.424-.08zm0-.705c.263 0 .507.046.732.138a1.736 1.736 0 01.966.949c.092.22.139.458.139.715 0 .257-.047.495-.14.715a1.74 1.74 0 01-.965.95 1.92 1.92 0 01-.732.137 1.92 1.92 0 01-.731-.138 1.769 1.769 0 01-.58-.378 1.757 1.757 0 01-.383-.57 1.82 1.82 0 01-.139-.716c0-.257.047-.495.14-.715.092-.219.22-.409.382-.57.163-.16.355-.287.58-.379.224-.092.468-.138.731-.138zm-19.192 1.79c0-.599.39-1.09 1.03-1.09.61 0 1.021.47 1.021 1.09 0 .621-.412 1.091-1.022 1.091-.639 0-1.03-.491-1.03-1.09zm2.747 0v-1.704h-.738v.414c-.235-.307-.589-.5-1.072-.5-.951 0-1.697.749-1.697 1.79s.746 1.79 1.697 1.79c.483 0 .837-.192 1.072-.499v.414h.738v-1.704zm-4.16 1.705v-2.14c0-.805-.511-1.347-1.335-1.355-.433-.007-.88.129-1.192.607-.235-.378-.604-.607-1.123-.607-.361 0-.717.107-.994.507v-.42h-.738v3.408h.746v-1.89c0-.591.326-.906.83-.906.49 0 .739.321.739.899v1.897h.745v-1.89c0-.591.341-.906.83-.906.505 0 .747.321.747.899v1.897h.745zm23.237-.256v.084h.078a.075.075 0 00.041-.01.036.036 0 00.016-.032.034.034 0 00-.016-.03.07.07 0 00-.041-.012h-.078zm.078-.058c.04 0 .071.009.093.027a.09.09 0 01.032.073.085.085 0 01-.026.065.13.13 0 01-.073.03l.102.119h-.08l-.095-.118h-.03v.118h-.067v-.314h.144zm-.02.422c.037 0 .07-.007.102-.02a.267.267 0 00.139-.141.27.27 0 00-.057-.29.252.252 0 00-.082-.055.245.245 0 00-.102-.02.256.256 0 00-.103.02.25.25 0 00-.14.14.255.255 0 00-.02.102c0 .037.006.071.02.103a.247.247 0 00.14.14c.032.014.066.02.103.02zm0-.603a.33.33 0 01.133.027.336.336 0 01.11.55.351.351 0 01-.243.1.343.343 0 01-.345-.338.326.326 0 01.1-.24.343.343 0 01.245-.1z" fill="#231F20"/></svg>