<svg width="42" height="33" fill="none" xmlns="http://www.w3.org/2000/svg"><path d="M40.33 31.876v.084h.078a.08.08 0 00.042-.01.037.037 0 00.015-.032.036.036 0 00-.015-.031.074.074 0 00-.042-.01h-.077zm.079-.059c.04 0 .07.01.092.027a.09.09 0 01.032.074.085.085 0 01-.026.064.125.125 0 01-.073.031l.102.119h-.08l-.094-.118h-.031v.118h-.066v-.315h.144zm-.02.423a.264.264 0 00.24-.367.266.266 0 00-.138-.14.27.27 0 00-.204 0 .254.254 0 00-.14.14.256.256 0 00-.02.103c0 .036.006.07.02.102a.247.247 0 00.139.14.255.255 0 00.102.022zm0-.603a.333.333 0 01.241.1.33.33 0 01.1.239.351.351 0 01-.208.312.337.337 0 01-.378-.073.353.353 0 01-.073-.108.326.326 0 01-.026-.131.332.332 0 01.209-.312.337.337 0 01.134-.027zm-31.525-1.21c0-.6.39-1.092 1.025-1.092.608 0 1.018.47 1.018 1.091 0 .62-.41 1.092-1.018 1.092-.636 0-1.025-.492-1.025-1.092zm2.736 0v-1.705h-.735v.414c-.233-.307-.587-.5-1.067-.5-.948 0-1.69.75-1.69 1.79 0 1.042.742 1.79 1.69 1.79.48 0 .834-.192 1.067-.5v.415h.735v-1.705zm24.827 0c0-.6.39-1.092 1.025-1.092.608 0 1.018.47 1.018 1.091 0 .62-.41 1.092-1.018 1.092-.636 0-1.025-.492-1.025-1.092zm2.736 0v-3.074h-.735v1.783c-.233-.307-.587-.5-1.067-.5-.948 0-1.69.75-1.69 1.79 0 1.042.742 1.79 1.69 1.79.48 0 .834-.192 1.067-.5v.415h.735v-1.705zM20.72 29.3c.474 0 .778.3.856.827H19.82c.079-.492.375-.827.898-.827zm.015-.664c-.99 0-1.683.727-1.683 1.79 0 1.084.721 1.79 1.732 1.79.51 0 .975-.128 1.386-.477l-.36-.55a1.607 1.607 0 01-.984.357c-.473 0-.904-.22-1.01-.835h2.509c.007-.092.014-.185.014-.285-.007-1.063-.657-1.79-1.604-1.79zm8.871 1.79c0-.599.39-1.091 1.025-1.091.608 0 1.018.47 1.018 1.091 0 .62-.41 1.092-1.018 1.092-.636 0-1.025-.492-1.025-1.092zm2.736 0v-1.704h-.735v.414c-.234-.307-.586-.5-1.067-.5-.948 0-1.69.75-1.69 1.79 0 1.042.742 1.79 1.69 1.79.48 0 .833-.192 1.067-.5v.415h.735v-1.705zm-6.885 0c0 1.035.714 1.79 1.803 1.79.509 0 .848-.114 1.215-.406l-.353-.6c-.276.2-.565.308-.884.308-.587-.008-1.018-.435-1.018-1.092 0-.656.431-1.084 1.018-1.091.319 0 .608.107.884.307l.353-.6c-.367-.292-.706-.406-1.215-.406-1.09 0-1.803.756-1.803 1.79zm9.472-1.79c-.423 0-.7.2-.89.5v-.414h-.729v3.409h.736V30.22c0-.564.24-.878.72-.878.15 0 .305.021.46.086l.227-.699a1.552 1.552 0 00-.524-.093zm-19.694.357c-.354-.235-.841-.357-1.378-.357-.856 0-1.407.414-1.407 1.092 0 .555.41.898 1.165 1.005l.348.05c.403.057.593.164.593.357 0 .264-.269.414-.77.414-.51 0-.877-.164-1.124-.357l-.347.577c.403.3.912.443 1.463.443.976 0 1.542-.464 1.542-1.113 0-.6-.446-.913-1.181-1.02l-.346-.05c-.318-.043-.573-.106-.573-.335 0-.25.24-.4.643-.4.431 0 .849.165 1.054.293l.318-.6zm9.48-.357c-.425 0-.7.2-.89.5v-.414h-.729v3.409h.735V30.22c0-.564.24-.878.72-.878.15 0 .305.021.46.086l.227-.699a1.552 1.552 0 00-.524-.093zm-6.27.086h-1.202v-1.034H16.5v1.034h-.685v.677h.685v1.555c0 .791.304 1.263 1.173 1.263.32 0 .686-.1.92-.264l-.212-.635c-.22.128-.46.192-.651.192-.367 0-.487-.228-.487-.57V29.4h1.201v-.678zM7.457 32.13v-2.14c0-.805-.509-1.348-1.33-1.355-.43-.007-.876.128-1.187.607-.233-.378-.6-.607-1.117-.607-.36 0-.713.107-.99.506v-.42H2.1v3.409h.742v-1.89c0-.592.325-.906.828-.906.488 0 .735.32.735.899v1.897h.742v-1.89c0-.592.34-.906.827-.906.502 0 .742.32.742.899v1.897h.743z" fill="#231F20"/><path d="M40.784 20.794v-.498h-.129l-.148.342-.149-.342h-.13v.498h.092v-.376l.14.324h.094l.14-.325v.377h.09zm-.816 0v-.413h.165v-.084h-.421v.084h.165v.413h.09z" fill="#F79410"/><path d="M26.155 22.936H15.02V2.746h11.135v20.19z" fill="#FF5F00"/><path d="M15.734 12.84c0-4.096 1.9-7.744 4.86-10.095A12.6 12.6 0 0012.73 0C5.702 0 .005 5.748.005 12.84c0 7.091 5.697 12.84 12.726 12.84a12.6 12.6 0 007.864-2.746 12.86 12.86 0 01-4.86-10.094z" fill="#EB001B"/><path d="M41.173 12.84c0 7.091-5.698 12.84-12.726 12.84-2.968 0-5.7-1.027-7.865-2.746a12.857 12.857 0 004.861-10.094c0-4.096-1.9-7.744-4.861-10.095A12.604 12.604 0 0128.448 0c7.027 0 12.725 5.748 12.725 12.84z" fill="#F79E1B"/></svg>