<svg width="81" height="26" fill="none" xmlns="http://www.w3.org/2000/svg"><path d="M34.799 25.479h-6.505L32.361.454h6.505L34.8 25.479zM58.38 1.066C57.099.559 55.064 0 52.547 0c-6.424 0-10.948 3.408-10.975 8.28-.054 3.594 3.238 5.59 5.7 6.789 2.518 1.224 3.373 2.024 3.373 3.115-.026 1.677-2.034 2.45-3.907 2.45-2.597 0-3.988-.4-6.103-1.332l-.857-.4-.91 5.618c1.526.691 4.337 1.305 7.255 1.332 6.826 0 11.27-3.355 11.322-8.547.026-2.848-1.712-5.031-5.46-6.815-2.275-1.145-3.669-1.917-3.669-3.088.027-1.066 1.179-2.156 3.747-2.156 2.115-.054 3.669.452 4.846.958l.588.266.885-5.404zm8.647 15.547a6398.72 6398.72 0 002.597-7.002c-.027.054.535-1.464.856-2.395l.455 2.156s1.231 5.99 1.499 7.241h-5.407zm8.03-16.16h-5.032c-1.552 0-2.73.453-3.4 2.077l-9.663 22.948h6.826s1.124-3.088 1.365-3.754h8.352c.187.879.777 3.754.777 3.754h6.023L75.057.454zM22.86.454l-6.37 17.064-.697-3.46c-1.178-3.994-4.872-8.333-8.994-10.49l5.835 21.884h6.88L29.739.454H22.86z" fill="#00579F"/><path d="M10.573.455H.107L0 .961c8.164 2.077 13.572 7.082 15.793 13.1L13.518 2.558C13.143.96 11.992.508 10.573.455z" fill="#FAA61A"/></svg>